<svg width="144" height="220" viewBox="0 0 144 220" xmlns="http://www.w3.org/2000/svg"><title>alexrdz-skull</title><g fill="none" fill-rule="evenodd"><path d="M111.458 139.237s-1.884 16.352-9.084 20.242H43.66c-7.2-3.89-9.083-20.242-9.083-20.242s-16.213-10.098-15.75-5.866c.462 4.23 3.43 10.355 7.127 11.133 3.696.777 3.89 12.641 5.253 22.422 1.363 9.782 4.087 13.947 7.59 15.892 3.502 1.944 2.334 3.5 13.426 8.169 11.09 4.666 20.792 3.5 20.795 3.5.003 0 9.705 1.166 20.795-3.5 11.092-4.67 9.923-6.225 13.426-8.169 3.502-1.945 6.227-6.11 7.589-15.892 1.362-9.78 1.555-21.645 5.254-22.422 3.696-.778 6.664-6.902 7.127-11.133.461-4.232-15.75 5.866-15.75 5.866" fill="#FFF"/><path d="M120.47 41.398C106.462 24.478 85.715 23.31 73.019 23.31c-12.698 0-33.445 1.168-47.454 18.088-14.01 16.92-17.805 37.71-12.843 56.012 4.085 15.072 2.042 18.67 2.042 18.67s-5.836 16.63 14.303 20.713c20.14 4.085 15.761 15.56 15.47 21.394l28.482.193 28.481-.193c-.292-5.834-4.67-17.31 15.47-21.394 20.14-4.083 14.303-20.712 14.303-20.712s-2.044-3.6 2.042-18.67c4.962-18.303 1.168-39.093-12.843-56.013" fill="#FFF"/><path d="M50.71 188.16c2.932-1.638 9.764-5.245 9.916-1.08.127 3.462-5.938 2.4-9.915 1.08m-4.637-7.21c-.12-1.24-.191-3.341 1.224-3.92 1.056-.433 1.234 1.119 1.307 1.779.184 1.642.037 3.32-.213 4.99-.38 1.001-.637 2.047-.733 3.064a.549.549 0 0 0-.319-.093 4.612 4.612 0 0 0-.09-.303c-.538-1.807-.993-3.633-1.176-5.516m5.921-.836c.678-.68 3.518-1.873 3.697-.022.219 2.262-3.453 5.571-5.73 6.965-.33.176-.606.328-.805.44-.031.018-.057.038-.082.058l-.223-.093c.182-1.003.355-2.005.507-3.01.23-.62.5-1.226.79-1.805a9.844 9.844 0 0 1 1.846-2.533m2.198 4.966c2.016-2.126 3.541-4.672 2.01-6.334-1.688-1.832-4.482.016-5.667 1.378-.278.319-.54.67-.79 1.039.141-1.635.25-4.197-1.126-5.025-1.603-.964-3.02.627-3.464 2.05-.418 1.337-.335 2.867-.048 4.386-1.723-2.389-4.098-4.603-6.008-4.043-1.837.538-2.08 2.702-1.136 4.116 1.564 2.34 4.701 2.905 6.956 4.263.178.108.386-.152.226-.294-1.093-.962-2.339-1.703-3.561-2.483-.863-.55-1.68-1.116-2.395-1.855-1.08-1.12-.468-3.233 1.218-2.491 2.198.967 4.855 4.188 5.74 6.666.065.203.127.405.187.6a.484.484 0 0 0 .357.343.523.523 0 0 0 .194.467c.218.183.487.367.788.55.106.248.39.386.632.352 4.1 2.093 12.753 3.514 13.596-1.512.777-4.626-3.76-3.738-7.709-2.173M95.919 188.967c-3.051.334-6.713 1.862-9.53 0-.891-.621-1.642-2.196-.844-3.152.938-1.193 2.99-.984 4.211-.841.986.095 1.938.841 2.924.985-.517-1.385-3.661-5.491-1.878-6.78.563-.43 1.22-.191 1.83 0 .47.143 1.41.286 1.784.573.47.333.611 1.193.986 1.623.329.477.798 1.002 1.221 1.337.282-1.146.704-2.387.845-3.581.14-.764.047-2.58 1.22-2.292 1.455.334 2.034 2.414 2.034 3.512 0 1.194-.531 2.504-.25 3.698 1.596-.573 2.16-2.674 3.708-3.486.61-.334 3.018-2.03 3.568-.716.376.898-.188 2.244-.61 2.674-1.362 1.385-3.24 2.053-4.835 3.103-1.972 1.29-3.614 3.916-6.196 3.964-.751 0-1.503-.287-2.207-.335-.093 0-.188 0-.281.048" fill="#B01368"/><path d="M50.03 188.967c3.05.334 6.712 1.862 9.529 0 .891-.621 1.642-2.196.845-3.152-.939-1.193-2.991-.984-4.212-.841-.986.095-1.938.841-2.924.985.517-1.385 3.661-5.491 1.878-6.78-.563-.43-1.22-.191-1.83 0-.47.143-1.409.286-1.784.573-.47.333-.61 1.193-.986 1.623-.328.477-.798 1.002-1.22 1.337-.282-1.146-.705-2.387-.845-3.581-.141-.764-.047-2.58-1.221-2.292-1.455.334-2.034 2.414-2.034 3.512 0 1.194.532 2.504.25 3.698-1.596-.573-2.159-2.674-3.708-3.486-.61-.334-3.017-2.03-3.568-.716-.376.898.188 2.244.61 2.674 1.362 1.385 3.24 2.053 4.836 3.103 1.972 1.29 3.614 3.916 6.196 3.964.75 0 1.502-.287 2.206-.335.094 0 .188 0 .282.048M85.671 187.08c.154-4.165 6.985-.558 9.916 1.08-3.977 1.32-10.042 2.381-9.916-1.08m13.376-.613a5.172 5.172 0 0 0-.09.303.548.548 0 0 0-.318.092v.001a11.951 11.951 0 0 0-.732-3.063c-.25-1.67-.4-3.35-.215-4.991.074-.66.251-2.212 1.307-1.78 1.415.58 1.346 2.682 1.225 3.922-.182 1.883-.637 3.71-1.177 5.516m-2.899-3.82c.291.58.56 1.186.79 1.806.152 1.005.326 2.008.509 3.01l-.224.093c-.026-.02-.051-.04-.082-.058-.199-.112-.475-.264-.805-.44-2.277-1.394-5.949-4.704-5.73-6.965.178-1.85 3.019-.658 3.695.022a9.812 9.812 0 0 1 1.847 2.533m-11.754 4.605c.845 5.027 9.498 3.606 13.597 1.513a.613.613 0 0 0 .632-.352c.302-.182.57-.366.79-.55a.52.52 0 0 0 .193-.467.486.486 0 0 0 .357-.343l.186-.6c.886-2.479 3.542-5.7 5.74-6.667 1.686-.74 2.298 1.372 1.218 2.491-.713.74-1.53 1.306-2.393 1.856-1.223.78-2.469 1.52-3.562 2.483-.161.143.047.401.227.293 2.253-1.357 5.391-1.923 6.954-4.262.945-1.414.702-3.577-1.135-4.116-1.91-.56-4.285 1.654-6.008 4.043.287-1.519.37-3.049-.048-4.386-.444-1.422-1.862-3.014-3.464-2.05-1.375.828-1.267 3.39-1.127 5.025-.25-.37-.511-.72-.788-1.038-1.186-1.363-3.98-3.211-5.667-1.38-1.532 1.663-.007 4.209 2.008 6.336-3.95-1.566-8.486-2.453-7.71 2.171" fill="#B01368"/><path d="M119.785 143.09c-3.88.817-4.632 7.871-5.587 16.803-.242 2.269-.492 4.616-.8 6.835-1.152 8.259-3.267 12.832-6.86 14.828-1.284.712-2.046 1.408-2.784 2.083-1.44 1.318-3.233 2.958-10.502 6.016-4.455 1.876-8.687 2.77-12.071 3.185-2.537-1.785-4.659-3.434-6.064-6.288-1.26-2.562-1.487-5.376-2.23-8.089.012-.282.024-.561.032-.836.007-.217-.326-.262-.378-.051-.697 2.82-1.048 5.686-1.932 8.47-1.006 3.172-2.738 5.258-5.446 6.832-3.432-.397-7.788-1.291-12.38-3.223-7.267-3.057-9.06-4.698-10.502-6.016-.736-.673-1.498-1.37-2.784-2.083-3.593-1.997-5.71-6.57-6.86-14.828-.308-2.218-.559-4.567-.801-6.838-.953-8.93-1.706-15.983-5.584-16.8-2.176-.457-5.178-4.602-5.905-9.275 2.546.395 8.864 3.834 12.888 6.29.485 3.474 2.792 16.89 9.739 20.644l.321.174h59.444l.321-.174c6.946-3.752 9.254-17.17 9.742-20.643 4.025-2.457 10.347-5.9 12.89-6.29-.713 4.648-3.725 8.815-5.907 9.275m-46.976 38.448a.252.252 0 0 0-.153-.155c.028-.242.054-.483.077-.723.03.335.068.668.112 1-.014-.04-.022-.082-.036-.122m55.294-49.872c-.462-.515-1.13-.776-1.984-.776-3.796 0-13.516 5.932-15.426 7.121l-.59.368-.08.692c-.005.04-.463 3.922-1.766 8.317-1.612 5.442-3.776 9.116-6.269 10.646h-57.94c-5.157-3.167-7.546-14.73-8.036-18.963l-.078-.692-.592-.368c-1.91-1.189-11.626-7.12-15.425-7.12-.854 0-1.524.26-1.988.777-.3.337-.64.932-.538 1.858.499 4.57 3.648 11.419 8.266 12.39 1.822.383 2.752 9.082 3.307 14.279.244 2.294.498 4.668.813 6.93 1.287 9.246 3.852 14.475 8.317 16.953.989.55 1.538 1.053 2.237 1.69 1.605 1.469 3.602 3.295 11.332 6.548 7.739 3.257 14.867 3.744 18.427 3.744 1.568 0 2.604-.09 2.93-.123.423.042 1.424.121 2.924.123h.002c3.559 0 10.687-.487 18.427-3.744 7.73-3.253 9.726-5.08 11.332-6.548.697-.637 1.247-1.14 2.236-1.69 4.464-2.478 7.029-7.706 8.318-16.953.316-2.275.57-4.64.812-6.931.556-5.197 1.484-13.895 3.309-14.278 4.616-.971 7.766-7.82 8.265-12.39.1-.926-.238-1.522-.542-1.86" fill="#000"/><path d="M81.15 119.368c-.502-3.355-5.044-8.315-6.495-7.73-1.452.582-.155 4.23-.009 9.334.146 5.106-1.628 7.585-1.628 7.585s-1.776-2.48-1.63-7.585c.147-5.105 1.443-8.752-.008-9.334-1.451-.585-5.993 4.375-6.495 7.73-.502 3.355-.606 6.126-1.648 8.022-1.042 1.897-4.2 4.814-1.527 9.92 2.673 5.105 10.601-.438 11.308-2.918.706 2.48 8.633 8.023 11.306 2.917 2.673-5.105-.483-8.022-1.526-9.919-1.043-1.896-1.147-4.667-1.648-8.022z" fill="#000"/><path d="M46.139 162.734s-2.723-1.697-3.493-.53-.719 6.247.982 6.05c1.7-.195 2.51-5.52 2.51-5.52" fill="#FFF"/><path d="M43.543 162.23c-.35 0-.471.123-.531.215-.477.722-.617 3.72.06 4.974.144.268.3.404.462.404a.372.372 0 0 0 .044-.003c.888-.102 1.736-2.857 2.08-4.86-.517-.286-1.456-.73-2.115-.73m-.01 6.467c-.35 0-.848-.149-1.233-.863-.811-1.506-.702-4.835-.019-5.871.182-.277.55-.607 1.262-.607 1.2 0 2.762.966 2.827 1.007l.245.152-.044.284c-.143.945-.957 5.669-2.892 5.89-.05.006-.097.008-.145.008" fill="#1A1918"/><path d="M53.293 163.857s-.908-.826-2.66-.608c-1.751.219-1.751 2.164-1.751 2.164s-.867 6.126.879 6.613c1.748.485 2.202-2.441 2.202-2.441l1.33-5.728z" fill="#FFF"/><path d="M51.213 163.65c-.17 0-.347.012-.525.033-1.34.168-1.368 1.668-1.368 1.732l-.005.06c-.501 3.549-.098 5.944.563 6.129.093.025.18.039.263.039.865 0 1.304-1.574 1.39-2.125l.006-.032 1.262-5.442c-.265-.158-.794-.394-1.586-.394m-1.072 8.867c-.163 0-.33-.023-.497-.07-1.998-.557-1.361-5.917-1.2-7.066.012-.817.469-2.358 2.136-2.566a4.93 4.93 0 0 1 .633-.04c1.523 0 2.34.727 2.374.758l.19.173-1.384 5.963c-.042.26-.515 2.848-2.252 2.848" fill="#1A1918"/><path d="M69.8 174.359s-3.308-1.945-3.113-8.46c0 0-.487-2.042 3.113-2.042s3.21 1.556 3.21 1.556-.096 9.237-3.21 8.946" fill="#FFF"/><path d="M69.8 164.294c-1.552 0-2.2.395-2.469.725a.994.994 0 0 0-.216.784l.009.051v.059c-.096 3.218.7 5.243 1.386 6.376.597.986 1.216 1.484 1.433 1.64.962 0 1.75-1.462 2.217-4.115.385-2.179.412-4.384.412-4.406l.014-.101c0-.005.023-.168-.136-.357-.207-.245-.825-.656-2.65-.656m.143 10.51c-.061 0-.121-.003-.184-.01l-.097-.008-.084-.05c-.143-.085-3.512-2.143-3.33-8.8a1.893 1.893 0 0 1 .386-1.447c.56-.71 1.626-1.07 3.166-1.07 1.702 0 2.831.34 3.357 1.013.336.43.316.857.29 1.022-.014 1.116-.23 9.35-3.504 9.35" fill="#1A1918"/><path d="M66.738 165.203s.431-1.249-2.437-1.346c-2.868-.098-3.452-.224-3.744 1.346-.292 1.571-.876 8.767 1.848 10.031 2.725 1.265 4.483-7.03 4.333-10.031" fill="#FFF"/><path d="M62.52 164.243c-1.24 0-1.368.157-1.532 1.04-.319 1.718-.73 8.472 1.602 9.554.13.06.25.09.373.09.268 0 .55-.153.839-.456 1.624-1.707 2.606-7.092 2.5-9.247l-.005-.083.028-.08c0-.003.017-.103-.073-.224-.111-.147-.527-.494-1.966-.542l-.511-.02c-.49-.017-.91-.032-1.256-.032m.444 11.559c-.248 0-.498-.057-.742-.171-3.078-1.429-2.362-9.063-2.095-10.508.28-1.502.965-1.755 2.393-1.755.36 0 .79.015 1.286.033l.51.018c1.375.047 2.274.363 2.67.94.25.363.227.714.194.885.093 2.327-.884 7.878-2.743 9.83-.46.483-.956.728-1.473.728" fill="#1A1918"/><path d="M60.399 166.468s-.62-2.13-1.3-2.663c-.682-.531-2.699-1.504-2.906 1.802-.209 3.307.224 9.595 1.758 9.758 1.535.16 2.677-3.66 2.448-8.897" fill="#FFF"/><path d="M57.685 163.687c-.771 0-1 1.06-1.056 1.948-.284 4.509.557 9.21 1.369 9.294a.405.405 0 0 0 .047.002c.157 0 .322-.088.49-.264.818-.854 1.612-3.76 1.428-8.127-.247-.83-.75-2.09-1.135-2.39-.273-.214-.737-.463-1.143-.463m.36 12.12h-.001c-.045 0-.092-.003-.139-.007-.931-.1-1.56-1.433-1.92-4.076-.257-1.876-.346-4.287-.23-6.144.152-2.41 1.274-2.77 1.93-2.77.79 0 1.487.498 1.682.65.754.59 1.341 2.507 1.451 2.886l.018.103c.18 4.113-.474 7.577-1.668 8.823-.34.355-.718.535-1.123.535" fill="#1A1918"/><path d="M56.193 165.607s-.534-2.707-2.366-2.131c-1.832.575-2.61 7.77-.956 9.23 1.653 1.459 3.475-1.379 3.406-2.334-.071-.956-.084-4.765-.084-4.765" fill="#FFF"/><path d="M54.32 163.833c-.112 0-.234.02-.36.06-.36.112-.907.855-1.274 2.577-.523 2.463-.3 5.224.474 5.907.229.202.457.3.698.3.357 0 .764-.227 1.146-.64.549-.589.856-1.348.836-1.633-.068-.913-.083-4.285-.085-4.748-.06-.256-.475-1.823-1.435-1.823m-.462 9.719h-.002c-.456 0-.885-.174-1.275-.518-1.194-1.053-1.278-4.262-.751-6.746.225-1.058.767-2.884 1.867-3.23.21-.067.42-.1.623-.1 1.776 0 2.281 2.46 2.302 2.565l.009.083c0 .038.013 3.804.082 4.733.045.606-.414 1.592-1.066 2.295-.56.6-1.178.918-1.79.918" fill="#1A1918"/><path d="M49.444 163.857s-.172-1.06-2.119-1.393c-1.946-.333-2.141 2.463-2.141 2.463s-.618 4.09 1.482 4.658c2.1.568 1.977-3.784 2.778-5.728" fill="#FFF"/><path d="M47.013 162.874c-1.232 0-1.39 2.061-1.391 2.083l-.004.035c-.155 1.03-.247 3.788 1.162 4.17a.958.958 0 0 0 .244.036c.809 0 1.138-1.692 1.427-3.187.155-.8.303-1.56.529-2.168-.097-.206-.465-.731-1.729-.948a1.524 1.524 0 0 0-.238-.02m.01 7.198c-.15 0-.31-.022-.47-.065-2.399-.65-1.853-4.788-1.804-5.13.022-.27.287-2.879 2.264-2.879.126 0 .254.012.386.034 2.229.38 2.468 1.697 2.477 1.753l.02.122-.047.115c-.228.552-.378 1.33-.539 2.155-.371 1.915-.755 3.895-2.286 3.895" fill="#1A1918"/><path d="M99.896 162.734s2.722-1.697 3.492-.53.72 6.247-.981 6.05c-1.701-.195-2.511-5.52-2.511-5.52" fill="#FFF"/><path d="M100.376 162.96c.345 2.003 1.192 4.758 2.08 4.86.186.021.35-.11.508-.4.675-1.255.535-4.253.059-4.975-.06-.092-.181-.214-.531-.214-.659 0-1.597.443-2.116.73m2.125 5.736c-.047 0-.096-.002-.144-.007-1.935-.222-2.75-4.946-2.894-5.89l-.044-.285.245-.152c.067-.041 1.628-1.007 2.828-1.007.713 0 1.079.329 1.261.607.683 1.036.793 4.365-.019 5.87-.384.715-.883.864-1.233.864" fill="#1A1918"/><path d="M92.742 163.857s.908-.826 2.66-.608c1.75.219 1.75 2.164 1.75 2.164s.87 6.126-.879 6.613c-1.747.485-2.203-2.441-2.203-2.441l-1.328-5.728z" fill="#FFF"/><path d="M93.236 164.045l1.268 5.472c.086.551.529 2.126 1.39 2.126.081 0 .17-.014.262-.04.661-.184 1.066-2.58.563-6.129l-.004-.061c0-.062-.028-1.562-1.368-1.73a4.417 4.417 0 0 0-.525-.033c-.787 0-1.32.238-1.586.395m2.658 8.472c-1.737 0-2.21-2.587-2.253-2.847l-1.382-5.964.188-.173c.034-.03.851-.759 2.375-.759.207 0 .42.014.633.041 1.668.208 2.124 1.75 2.135 2.566.162 1.15.798 6.51-1.2 7.066-.168.047-.335.07-.496.07" fill="#1A1918"/><path d="M76.234 174.359s3.308-1.945 3.114-8.46c0 0 .487-2.042-3.114-2.042-3.6 0-3.21 1.556-3.21 1.556s.097 9.237 3.21 8.946" fill="#FFF"/><path d="M76.234 164.294c-1.824 0-2.442.411-2.65.656-.158.189-.135.352-.133.371l.013.049-.003.038c.036 3.294.781 8.518 2.63 8.52.479-.346 2.986-2.435 2.82-8.015l-.002-.059.013-.056c.002-.011.081-.41-.218-.78-.27-.33-.916-.724-2.47-.724m-.143 10.51c-3.273 0-3.49-8.234-3.505-9.35a1.346 1.346 0 0 1 .29-1.022c.527-.672 1.657-1.013 3.358-1.013 1.54 0 2.606.36 3.166 1.07.416.525.443 1.128.387 1.447.181 6.657-3.187 8.715-3.33 8.8l-.084.05-.098.008a1.657 1.657 0 0 1-.184.01" fill="#1A1918"/><path d="M79.295 165.203s-.43-1.249 2.439-1.346c2.868-.098 3.452-.224 3.744 1.346.291 1.571.875 8.767-1.85 10.031-2.723 1.265-4.482-7.03-4.333-10.031" fill="#FFF"/><path d="M83.515 164.243c-.345 0-.766.015-1.254.033l-.513.019c-1.439.048-1.854.395-1.965.542-.091.12-.073.22-.068.24l.027.08-.01.067c-.106 2.154.876 7.54 2.5 9.247.42.439.796.56 1.212.366 2.332-1.082 1.922-7.836 1.603-9.554-.164-.883-.292-1.04-1.532-1.04m-.443 11.559c-.518 0-1.014-.245-1.473-.728-1.86-1.952-2.836-7.503-2.743-9.83a1.161 1.161 0 0 1 .194-.885c.396-.577 1.294-.893 2.67-.94l.509-.018c.497-.018.926-.033 1.286-.033 1.429 0 2.114.253 2.393 1.755.268 1.445.984 9.079-2.095 10.508a1.75 1.75 0 0 1-.741.17" fill="#1A1918"/><path d="M85.637 166.468s.618-2.13 1.3-2.663c.68-.531 2.697-1.504 2.905 1.802.208 3.307-.224 9.595-1.76 9.758-1.535.16-2.676-3.66-2.445-8.897" fill="#FFF"/><path d="M86.072 166.54c-.185 4.366.609 7.271 1.427 8.127.186.193.366.28.538.262.812-.085 1.652-4.786 1.368-9.295-.057-.888-.285-1.947-1.055-1.947-.406 0-.87.25-1.143.462-.385.3-.888 1.561-1.135 2.391m1.917 9.267c-.405 0-.782-.18-1.123-.536-1.193-1.245-1.847-4.71-1.666-8.823l.016-.103c.11-.378.697-2.296 1.45-2.885.196-.152.893-.65 1.684-.65.655 0 1.777.361 1.929 2.77.124 1.97.131 9.979-2.151 10.22a1.48 1.48 0 0 1-.139.007" fill="#1A1918"/><path d="M89.843 165.607s.532-2.707 2.364-2.131c1.832.575 2.61 7.77.956 9.23-1.653 1.459-3.476-1.379-3.405-2.334.07-.956.085-4.765.085-4.765" fill="#FFF"/><path d="M90.28 165.656c-.002.46-.018 3.835-.085 4.749-.022.283.285 1.043.835 1.633.383.412.79.64 1.147.64.24 0 .468-.099.696-.3.776-.684.998-3.445.475-5.908-.367-1.722-.914-2.464-1.272-2.577a1.23 1.23 0 0 0-.362-.06c-.965 0-1.374 1.564-1.434 1.823m1.897 7.896c-.612 0-1.23-.319-1.789-.918-.653-.703-1.112-1.69-1.067-2.295.069-.929.083-4.695.083-4.734l.009-.082c.02-.106.525-2.565 2.301-2.565.202 0 .412.033.625.1 1.1.346 1.64 2.172 1.865 3.23.528 2.484.444 5.692-.751 6.746-.39.344-.82.518-1.276.518" fill="#1A1918"/><path d="M96.59 163.857s.173-1.06 2.118-1.393c1.947-.333 2.141 2.463 2.141 2.463s.62 4.09-1.48 4.658c-2.1.568-1.978-3.784-2.778-5.728" fill="#FFF"/><path d="M97.056 163.845c.225.609.372 1.367.526 2.164.29 1.496.62 3.19 1.43 3.19a.957.957 0 0 0 .242-.037c1.676-.454 1.168-4.133 1.163-4.17l-.004-.035c-.002-.02-.166-2.083-1.392-2.083-.075 0-.156.008-.237.021-1.257.215-1.626.735-1.728.95m1.956 6.228c-1.533 0-1.934-2.07-2.289-3.896-.16-.825-.31-1.603-.538-2.154l-.046-.114.02-.123c.009-.055.248-1.371 2.476-1.754.131-.02.261-.032.386-.032 1.977 0 2.242 2.609 2.264 2.878.05.343.595 4.48-1.803 5.13a1.85 1.85 0 0 1-.47.065M15.258 93.03c-.063-.1-.215-.036-.187.078 1.107 4.583 2.048 8.697 1.71 13.456-.173 2.437-.722 4.852-1.42 7.186-.677 2.26-1.82 4.396-2.191 6.735-.12.763.773 1.487 1.4.815 3.23-3.46 4.117-9.334 4.262-13.897.154-4.782-1.025-10.302-3.574-14.374M132.66 119.012c-.742-4.55-2.683-8.942-3.785-13.43-1.08-4.396 1.09-8.832 0-13.228-.012-.054-.085-.038-.089.012-.404 4.862-1.97 9.372-1.692 14.304.245 4.355 1.918 9.185 3.73 13.116.514 1.115 2.006.26 1.837-.774" fill="#1A1918"/><path d="M72.039 39.23a.311.311 0 0 0 .169-.266c.072-2.574-.065-5.149-.196-7.72-.06-1.2.176-2.786-.113-4.094a12.101 12.101 0 0 0-.158-1.724l-.009-.062-.004-.034-.004.003c-.113-.562-.54-1.038-1.29-1.01l-.031-.001a1.186 1.186 0 0 0-.4.064c-.1.023-.2.05-.299.085-1.81-.881-4.196-.591-6.265-.49a6.16 6.16 0 0 0-.835.028c-.816.087-1.295.675-1.424 1.31-2.225-1.015-4.538-1.423-6.096-.174-.415.333-.377 1.09 0 1.43 1.257 1.133 2.972.873 4.564 1.3 2.06.551 3.931 1.756 5.553 3.105 3.127 2.601 5.554 6.358 7.009 10.146.008.018.04.017.038-.006a18.62 18.62 0 0 0-.21-1.89M73.785 39.23a.31.31 0 0 1-.17-.266c-.071-2.574.066-5.149.196-7.72.06-1.2-.175-2.786.114-4.094.007-.564.065-1.132.158-1.724.002-.02.004-.04.008-.062l.005-.034.003.003c.114-.562.54-1.038 1.29-1.01l.032-.001c.133-.005.269.023.4.064.1.023.2.05.298.085 1.81-.881 4.196-.591 6.265-.49a6.16 6.16 0 0 1 .836.028c.816.087 1.295.675 1.423 1.31 2.226-1.015 4.539-1.423 6.096-.174.415.333.377 1.09 0 1.43-1.257 1.133-2.972.873-4.563 1.3-2.06.551-3.932 1.756-5.554 3.105-3.126 2.601-5.554 6.358-7.008 10.146-.008.018-.04.017-.038-.006.037-.641.109-1.27.209-1.89" fill="#B01368"/><path d="M131.92 97.903c-3.774 13.917-2.513 18.472-1.989 19.598.258.81 1.855 6.36-.949 11.293-1.164 2.05-2.948 3.73-5.323 5.032-.697.251-1.406.474-2.148.637-2.457.54-5.006.444-7.501.56-4.549.212-7.95 1.256-11.756 3.771-.02.014-.008.053.018.043 2.079-.824 4.155-1.57 6.342-2.05 2.139-.47 4.376-.275 6.565-.21-7.361 1.726-12.027 4.655-14.239 8.93-2.029 3.917-1.526 8.002-1.121 11.287l.009.069.091.761-26.898.183-26.906-.183c.031-.266.066-.543.1-.83.405-3.283.908-7.368-1.12-11.288-1.948-3.763-5.803-6.48-11.718-8.254 3.476.026 7.07.155 10.125 1.924.035.02.069-.025.043-.054-2.158-2.361-6.136-3.218-9.157-3.7-2.351-.376-4.769-.11-7.123-.522-1.977-.345-3.804-1.158-5.755-1.583-1.941-1.22-3.432-2.724-4.45-4.51-2.803-4.92-1.213-10.493-.956-11.308.524-1.127 1.782-5.686-1.99-19.596-2.439-8.995-2.672-18.624-.675-27.84 2.12-9.784 6.573-18.825 13.237-26.874 12.405-14.981 30.138-17.393 44.65-17.553.031-.008.063-.009.095-.014-.09 3.53.021 7.074.051 10.604.034 3.75-.266 7.785.577 11.47-1.607 1.589-2.882-.944-3.707-2.252-.938-1.486-1.695-3.082-2.456-4.662-2.257-4.697-7.073-7.415-12.033-8.253-6.127-1.035-19.309 1.135-17.727 9.694.02.109.186.08.187-.025.053-5.006 4.947-7.26 9.173-8.133 4.84-.999 10.422-.059 14.496 2.754 3.802 2.626 4.824 7.255 7.253 10.91 1.028 1.547 3.055 3.15 4.523 2.655-.08 1.786.055 3.619.046 5.37-.01 2.053.098 4.012.32 5.993-1.342-.287-2.503-.65-3.704-1.933-1.682-1.79-2.697-4.32-3.607-6.563-1.688-4.16-2.768-9.072-6.27-12.14-3.762-3.298-12.191-5.483-15.585-.408-1.164 1.74-1.512 3.921-.419 5.785.807 1.373 2.338.958 2.96-.268.039-.077-.038-.145-.113-.112-1.72.762-2.126-.644-2.129-2.025-.004-1.808 1.171-3.095 2.637-3.976 2.854-1.715 6.754-.733 9.422.81 3.671 2.122 4.943 6.3 6.322 10.04 1.23 3.335 2.41 6.937 4.71 9.716 1.369 1.656 3.721 3.387 6.014 3.333l-.014.285c-3.164 2.078-6.5-.017-8.604-2.782-1.818-2.39-1.891-5.533-2.607-8.337-.937-3.661-3.859-5.94-7.554-6.363-3.023-.346-5.234 2.721-3.567 5.39 1.005 1.606 5.081 2.466 4.898-.298-.002-.026-.037-.04-.05-.014-1.355 2.5-4.782.172-4.408-2.142.39-2.413 3.177-2.08 4.864-1.546 4.332 1.374 4.778 5.589 5.467 9.472.59 3.333 2.512 5.951 5.32 7.785 2.132 1.391 4.901 1.662 6.674-.08 1.773 1.742 4.542 1.471 6.674.08 2.808-1.834 4.73-4.452 5.32-7.785.688-3.883 1.136-8.098 5.467-9.472 1.685-.535 4.473-.867 4.864 1.546.374 2.314-3.053 4.642-4.408 2.142-.014-.025-.049-.012-.05.014-.183 2.764 3.893 1.904 4.897.297 1.667-2.668-.543-5.735-3.567-5.39-3.694.424-6.617 2.703-7.552 6.364-.717 2.804-.79 5.947-2.61 8.337-2.103 2.765-5.438 4.86-8.602 2.782l-.015-.285c2.293.054 4.645-1.677 6.015-3.333 2.299-2.779 3.481-6.38 4.71-9.716 1.378-3.74 2.65-7.918 6.321-10.04 2.668-1.543 6.567-2.525 9.422-.81 1.467.88 2.642 2.168 2.637 3.976-.004 1.381-.409 2.787-2.13 2.025-.073-.033-.15.035-.111.112.622 1.226 2.153 1.641 2.959.268 1.094-1.864.745-4.046-.418-5.785-3.394-5.075-11.824-2.89-15.586.408-3.5 3.068-4.581 7.98-6.27 12.14-.91 2.242-1.925 4.772-3.606 6.563-1.307 1.394-2.563 1.704-4.058 2.008-.005-.12-.006-.238-.011-.357.207-1.573.359-3.141.4-4.77.053-2.057.295-4.244.213-6.354 1.475.628 3.585-1.023 4.641-2.611 2.429-3.656 3.45-8.285 7.252-10.91 4.074-2.814 9.656-3.754 14.497-2.755 4.225.873 9.12 3.127 9.173 8.133 0 .105.167.134.186.025 1.582-8.56-11.6-10.729-17.727-9.694-4.96.838-9.776 3.556-12.034 8.253-.759 1.58-1.517 3.176-2.454 4.662-.818 1.296-2.078 3.788-3.664 2.29.798-3.394.66-7.072.8-10.532.157-3.877.419-7.78.34-11.664.116.03.23.063.34.103 14.45.193 32.011 2.679 44.323 17.548 6.664 8.049 11.117 17.09 13.237 26.873 1.997 9.217 1.763 18.846-.677 27.841m3.5-28.452c-2.22-10.24-6.872-19.695-13.835-28.103-13.657-16.494-33.13-18.61-48.566-18.61-15.438 0-34.91 2.116-48.568 18.61-6.96 8.408-11.615 17.862-13.835 28.103-2.094 9.667-1.848 19.768.712 29.208 3.167 11.685 2.636 16.674 2.152 17.637l-.078.179c-.104.297-2.497 7.348 1.14 13.746 1.724 3.034 4.482 5.377 8.225 7.01.425 1.785 1.87 3.12 3.112 4.448.015.016.042-.005.03-.022-.541-.702-.908-1.544-1.327-2.324-.271-.509-.41-1.033-.498-1.57 1.438.533 3.003.973 4.696 1.316 16.3 3.306 15.34 11.1 14.569 17.367-.111.903-.216 1.756-.255 2.539l-.076 1.506 29.996.204h.007l29.997-.204-.075-1.505c-.04-.784-.144-1.637-.256-2.545-.77-6.262-1.73-14.056 14.57-17.362 6.901-1.399 11.693-4.38 14.239-8.858 3.642-6.411 1.243-13.45 1.139-13.748l-.081-.187c-.475-.94-1.013-5.942 2.156-17.627 2.558-9.442 2.804-19.541.71-29.208" fill="#000"/><path d="M47.033 157.203s-.227-2.504-1.557-2.974c-1.329-.469-2.043.668-1.945 3.251.097 2.584.389 4.386 2.724 4.652s.778-4.929.778-4.929" fill="#FFF"/><path d="M44.93 154.564a.585.585 0 0 0-.45.191c-.22.228-.58.886-.511 2.71.103 2.753.465 4.019 2.336 4.231.04.005.08.008.119.008.192 0 .323-.061.425-.197.529-.71.136-2.94-.235-4.178l-.016-.086c-.057-.62-.397-2.294-1.267-2.6a1.226 1.226 0 0 0-.4-.08m1.493 8.016c-.07 0-.143-.004-.218-.013-2.713-.309-3.015-2.478-3.113-5.07-.061-1.636.194-2.764.757-3.348.44-.458 1.07-.578 1.773-.332 1.487.526 1.796 2.864 1.842 3.304.155.526 1.017 3.66.086 4.91-.268.359-.658.549-1.127.549" fill="#000"/><path d="M73.01 160.55s.083 1.654-1.361 1.654H65.81s-1.653-.004-1.166-2.726c.486-2.72 1.741-6.999 4.179-6.999 4.27 0 4.187 8.071 4.187 8.071" fill="#FFF"/><path d="M68.824 152.917c-1.89 0-3.176 3.429-3.75 6.639-.161.9-.087 1.566.213 1.926a.79.79 0 0 0 .524.284h5.838c.271 0 .474-.075.621-.229.272-.286.311-.806.304-.965 0-.075.023-4.92-1.915-6.875-.52-.525-1.12-.78-1.835-.78m2.825 9.724H65.81a1.64 1.64 0 0 1-1.195-.598c-.479-.573-.614-1.461-.404-2.64.396-2.214 1.638-7.361 4.611-7.361.95 0 1.775.35 2.459 1.04 2.193 2.216 2.168 7.26 2.166 7.473.005.074.032.98-.544 1.586-.312.327-.746.5-1.255.5" fill="#000"/><path d="M59.456 157.341s.226-3.014-1.915-4.862c-2.14-1.847-2.821 1.555-2.821 2.918 0 1.36-.292 6.028.583 6.807.876.777 4.026 0 4.153-4.863" fill="#FFF"/><path d="M56.401 152.379c-.759 0-1.243 1.788-1.243 3.018 0 .225-.009.54-.018.911-.034 1.383-.126 5.052.454 5.568.106.094.303.15.528.15 1.116 0 2.806-1.25 2.897-4.696.003-.049.178-2.844-1.765-4.52-.326-.282-.62-.431-.853-.431m-.279 10.523c-.446 0-.84-.132-1.11-.371-.74-.658-.834-2.788-.747-6.245a36 36 0 0 0 .017-.89c0-1.009.39-3.892 2.12-3.892.45 0 .93.217 1.424.645 2.283 1.968 2.077 5.093 2.067 5.224-.114 4.369-2.517 5.53-3.77 5.53" fill="#000"/><path d="M64.98 157.912s.83-4.947-.92-6.113c-1.752-1.168-5.839 6.126-5.157 9.529 0 0 5.536 3.281 6.076-3.416" fill="#FFF"/><path d="M59.299 161.044c.39.2 1.383.65 2.395.65 1.687 0 2.645-1.284 2.849-3.817l.005-.037c.302-1.806.371-4.943-.732-5.677a.299.299 0 0 0-.174-.052c-.13 0-.625.082-1.485 1.13-1.628 1.985-3.148 5.67-2.858 7.803m2.395 1.525c-1.538 0-2.955-.829-3.014-.864l-.168-.1-.039-.191c-.479-2.398 1.2-6.524 3.007-8.729.79-.96 1.517-1.45 2.162-1.45.24 0 .463.067.66.2 1.91 1.273 1.214 5.914 1.113 6.531-.313 3.804-2.196 4.603-3.721 4.603" fill="#000"/><path d="M54.673 157.203l-1.413-2.974s-1.46-1.653-1.654.39c-.194 2.042-.876 4.86-.876 4.86s-.583 1.849 1.168 1.849 3.02.696 2.775-4.125" fill="#FFF"/><path d="M52.23 154.035c-.008.001-.138.098-.188.625-.195 2.05-.859 4.805-.886 4.923l-.008.028c-.053.173-.159.74.06 1.035.12.162.351.245.69.245.211 0 .416.01.613.019.167.008.327.016.48.016.424 0 .65-.066.81-.233.384-.405.528-1.51.44-3.38l-1.347-2.836c-.207-.216-.514-.442-.663-.442m.76 7.766c-.167 0-.34-.009-.522-.017a11.878 11.878 0 0 0-.57-.017c-.79 0-1.196-.33-1.398-.605-.498-.677-.244-1.628-.194-1.798.05-.206.68-2.869.863-4.786.117-1.234.714-1.418 1.06-1.418.638 0 1.244.65 1.36.78l.04.047 1.476 3.107.004.087c.116 2.266-.086 3.496-.673 4.114-.424.445-.97.506-1.446.506" fill="#000"/><path d="M51.162 157.48s-.723-1.792-1.892-2.765c-1.167-.971-2.14-.373-2.237 2.488-.097 2.86.123 4.433 2.065 4.16 1.941-.273 1.823-2.542 2.064-3.883" fill="#FFF"/><path d="M48.319 154.72c-.352 0-.785.655-.848 2.499-.06 1.728 0 2.982.48 3.479.107.11.302.258.74.258.105 0 .222-.01.345-.025 1.187-.167 1.406-1.246 1.587-2.752.027-.226.053-.442.086-.644-.173-.39-.81-1.726-1.719-2.483-.256-.214-.495-.332-.671-.332m.371 7.111c-.57 0-1.03-.177-1.369-.527-.7-.722-.796-2.057-.725-4.115.094-2.764.989-3.344 1.723-3.344.392 0 .807.181 1.231.535 1.238 1.032 1.986 2.86 2.018 2.937l.047.116-.022.125c-.04.216-.068.463-.1.725-.155 1.29-.39 3.24-2.335 3.514-.164.023-.32.034-.468.034" fill="#000"/><path d="M99.001 157.203s.228-2.504 1.557-2.974c1.33-.469 2.043.668 1.946 3.251-.097 2.584-.39 4.386-2.725 4.652S99 157.203 99 157.203" fill="#FFF"/><path d="M101.104 154.564c-.118 0-.252.026-.4.078-.87.307-1.215 2.024-1.267 2.601l-.017.086c-.37 1.239-.762 3.47-.234 4.178.122.163.293.218.545.19 1.87-.213 2.232-1.479 2.335-4.233.07-1.823-.29-2.48-.511-2.709a.589.589 0 0 0-.45-.191m-1.493 8.015c-.47 0-.86-.19-1.128-.55-.931-1.25-.07-4.383.085-4.909.046-.44.355-2.778 1.843-3.304.703-.246 1.333-.125 1.772.332.565.585.819 1.712.757 3.349-.097 2.59-.398 4.76-3.111 5.07a1.898 1.898 0 0 1-.218.012" fill="#000"/><path d="M73.024 160.55s-.082 1.654 1.362 1.654h5.838s1.654-.004 1.167-2.726c-.486-2.72-1.74-6.999-4.18-6.999-4.27 0-4.187 8.071-4.187 8.071" fill="#FFF"/><path d="M77.212 152.917c-.716 0-1.317.255-1.837.78-1.938 1.955-1.914 6.8-1.914 6.849-.007.198.034.71.306.993.146.152.349.227.619.227h5.831a.79.79 0 0 0 .54-.297c.292-.362.363-1.024.203-1.913-.574-3.21-1.86-6.639-3.748-6.64m3.013 9.725h-5.84c-.509 0-.943-.173-1.255-.5-.576-.606-.549-1.512-.544-1.611-.003-.188-.028-5.232 2.165-7.448.685-.69 1.512-1.04 2.46-1.04 2.973 0 4.215 5.147 4.611 7.36.211 1.18.076 2.068-.404 2.641a1.638 1.638 0 0 1-1.193.598" fill="#000"/><path d="M86.577 157.341s-.224-3.014 1.917-4.862c2.14-1.847 2.821 1.555 2.821 2.918 0 1.36.292 6.028-.584 6.807-.876.777-4.025 0-4.154-4.863" fill="#FFF"/><path d="M89.633 152.379c-.232 0-.527.15-.853.431-1.942 1.676-1.767 4.471-1.766 4.5.093 3.466 1.784 4.717 2.899 4.717.224 0 .421-.057.527-.15.581-.517.49-4.186.455-5.569-.01-.372-.018-.686-.018-.911 0-1.23-.484-3.018-1.244-3.018m.28 10.523c-1.255 0-3.657-1.16-3.772-5.55-.01-.11-.215-3.235 2.066-5.204.495-.427.974-.644 1.426-.644 1.73 0 2.12 2.883 2.12 3.893 0 .22.008.527.016.89.087 3.456-.007 5.586-.747 6.244-.27.239-.663.371-1.11.371" fill="#000"/><path d="M81.055 157.912s-.831-4.947.92-6.113c1.751-1.168 5.837 6.126 5.156 9.529 0 0-5.536 3.281-6.076-3.416" fill="#FFF"/><path d="M82.392 152.11a.3.3 0 0 0-.174.052c-1.103.735-1.034 3.873-.73 5.678l.004.037c.204 2.533 1.163 3.817 2.849 3.817 1.016 0 2.005-.45 2.394-.649.29-2.134-1.23-5.82-2.858-7.805-.86-1.047-1.353-1.13-1.485-1.13m1.949 10.46c-1.526 0-3.407-.8-3.72-4.605-.102-.617-.8-5.257 1.11-6.53.199-.133.421-.2.661-.2.646 0 1.373.489 2.162 1.45 1.807 2.203 3.487 6.331 3.007 8.728l-.039.192-.168.1c-.059.035-1.476.864-3.013.864" fill="#000"/><path d="M91.361 157.203l1.414-2.974s1.459-1.653 1.653.39c.195 2.042.876 4.86.876 4.86s.584 1.849-1.168 1.849c-1.751 0-3.019.696-2.775-4.125" fill="#FFF"/><path d="M91.795 157.312c-.09 1.87.053 2.976.437 3.38.161.168.389.234.812.234.152 0 .312-.008.48-.015.196-.01.402-.02.612-.02.339 0 .572-.083.692-.247.223-.304.103-.892.058-1.033l-.008-.028c-.028-.118-.69-2.873-.886-4.923-.05-.527-.18-.624-.181-.625-.165 0-.483.245-.669.441l-1.347 2.836zm1.249 4.49c-.477 0-1.022-.061-1.446-.507-.588-.618-.788-1.849-.673-4.114l.004-.086 1.477-3.108.04-.047c.116-.13.721-.78 1.358-.78.345 0 .942.184 1.06 1.418.183 1.917.814 4.58.862 4.786.052.17.304 1.12-.192 1.798-.202.275-.61.605-1.398.605-.197 0-.387.008-.57.017-.183.008-.357.017-.522.017z" fill="#000"/><path d="M94.872 157.48s.724-1.792 1.89-2.765c1.169-.971 2.142-.373 2.239 2.488.097 2.86-.123 4.433-2.064 4.16-1.942-.273-1.823-2.542-2.065-3.883" fill="#FFF"/><path d="M95.326 157.535c.032.202.058.418.084.644.182 1.506.402 2.584 1.588 2.751.124.017.24.026.346.026.438 0 .63-.148.739-.259.48-.497.54-1.75.48-3.479-.063-1.844-.496-2.498-.848-2.498-.176 0-.414.118-.672.331-.907.758-1.545 2.094-1.717 2.484m2.018 4.297c-.146 0-.304-.012-.469-.036-1.944-.272-2.178-2.223-2.334-3.513-.031-.263-.06-.509-.1-.725l-.022-.124.047-.117c.031-.078.78-1.906 2.016-2.937.427-.354.84-.534 1.233-.534.735 0 1.63.579 1.723 3.343.07 2.059-.026 3.393-.725 4.116-.338.35-.799.527-1.369.527" fill="#000"/><path d="M21.282 117.574c-.45 0-.772.349-.822.747-.112.308.003.724.303.862.49.225.943.088 1.244-.346.372-.537-.125-1.263-.725-1.263M22.112 122.376c-2.378 0-2.378 3.685 0 3.685s2.378-3.685 0-3.685M27.09 126.167c-1.017 0-1.867.85-1.867 1.866 0 1.017.85 1.866 1.867 1.866a1.884 1.884 0 0 0 1.867-1.866 1.884 1.884 0 0 0-1.867-1.866M33.562 128.004c-2.393 0-2.393 3.709 0 3.709s2.393-3.71 0-3.71M40.367 128.097c-2.273 0-2.273 3.522 0 3.522 2.272 0 2.272-3.522 0-3.522M47.17 127.108c-1.836 0-1.836 2.846 0 2.846s1.836-2.846 0-2.846M53.565 126.453l-.084-.083c-.584-.58-1.613-.16-1.613.668 0 .827 1.029 1.247 1.613.668l.084-.082a.837.837 0 0 0 0-1.171M57.828 123.487c-.474-.154-.961.255-.961.731 0 .34.218.597.502.7.111.096.25.155.422.155.275 0 .623-.208.665-.506.068-.501-.13-.917-.628-1.08M61.11 121.045c-1.098 0-1.098 1.703 0 1.703 1.1 0 1.1-1.703 0-1.703" fill="#B01368"/><path d="M73.972 102.195c-.219-1.326-.797-2.582-1.14-3.881-.027-.104-.182-.104-.21 0-.343 1.299-.922 2.555-1.14 3.88-.214 1.303-.29 2.629-.347 3.945-.09 2.053 3.274 2.053 3.185 0-.058-1.316-.135-2.642-.348-3.944" fill="#000"/><path d="M123.486 118.837c.301.434.755.57 1.246.346.3-.138.415-.554.302-.862-.049-.398-.372-.747-.822-.747-.6 0-1.098.727-.726 1.263M123.382 122.376c2.379 0 2.379 3.685 0 3.685-2.377 0-2.377-3.685 0-3.685M118.404 126.167c1.017 0 1.867.85 1.867 1.866 0 1.017-.85 1.866-1.867 1.866a1.884 1.884 0 0 1-1.867-1.866c0-1.016.85-1.866 1.867-1.866M111.932 128.004c2.392 0 2.392 3.709 0 3.709-2.394 0-2.394-3.71 0-3.71M105.128 128.097c2.272 0 2.272 3.522 0 3.522s-2.272-3.522 0-3.522M98.323 127.108c1.836 0 1.836 2.846 0 2.846s-1.836-2.846 0-2.846M91.93 126.453c.027-.029.055-.056.084-.083.584-.58 1.613-.16 1.613.668 0 .827-1.029 1.247-1.613.668l-.084-.082a.835.835 0 0 1 0-1.171M87.04 124.567c.04.298.387.506.663.506.173 0 .311-.06.421-.155a.737.737 0 0 0 .503-.7c0-.475-.487-.885-.96-.73-.498.162-.698.578-.628 1.08M84.384 121.045c1.099 0 1.099 1.703 0 1.703-1.098 0-1.098-1.703 0-1.703" fill="#B01368"/><path d="M61.199 178.337c-.435-.159-1.066.012-1.368.361-1.57 1.82 1.318 2.46 2.415 3.198 2.115 1.424 2.797 3.898 3.389 6.214.034.132.2.108.243 0 1.455-3.587-1.226-8.517-4.68-9.773M69.154 177.073c-.667-1.76-3.531-.938-2.812.775.44 1.051.683 2.176 1.146 3.213.639 1.433.56 2.68.564 4.195 0 .185.275.278.363.099.629-1.298.776-2.731 1.208-4.104.425-1.356.018-2.897-.469-4.178M84.404 178.337c.436-.159 1.067.012 1.368.361 1.572 1.82-1.317 2.46-2.414 3.198-2.116 1.424-2.798 3.898-3.39 6.214-.034.132-.2.108-.244 0-1.452-3.587 1.228-8.517 4.68-9.773M76.448 177.073c.668-1.76 3.532-.938 2.814.775-.442 1.051-.684 2.176-1.147 3.213-.639 1.433-.558 2.68-.563 4.195-.001.185-.276.278-.363.099-.63-1.298-.776-2.731-1.208-4.104-.425-1.356-.018-2.897.467-4.178M55.87 136.096c-.458-1.472-1.992-3.335-3.42-3.967-2.076-.916-5.703-.829-5.763 2.207-.025 1.289 1.169 1.907 2.292 1.745.696-.101 1.135-.546 1.666-.958.394-.307 1-.231 1.455-.325 1.249-.256 2.627.587 3.36 1.536.154.199.48-.017.41-.238M57.345 127.16c-.964.59-1.657 1.625-1.558 2.784.083.98.546 1.82.699 2.773.025.158.245.126.289 0 .507-1.495 1.64-2.352 2.519-3.61.834-1.193-.777-2.667-1.949-1.948M89.494 136.096c.458-1.472 1.993-3.335 3.421-3.967 2.075-.916 5.702-.829 5.763 2.207.025 1.289-1.17 1.907-2.293 1.745-.696-.101-1.135-.546-1.666-.958-.394-.307-1-.231-1.454-.325-1.249-.256-2.627.587-3.361 1.536-.154.199-.478-.017-.41-.238M88.02 127.16c.963.59 1.657 1.625 1.558 2.784-.084.98-.546 1.82-.7 2.773-.024.158-.244.126-.288 0-.507-1.495-1.64-2.352-2.52-3.61-.833-1.193.777-2.667 1.95-1.948" fill="#000"/><path d="M43.567 170.123c-.535-.626-2.126-.99-2.85-.445a7.6 7.6 0 0 1-.246.174c.019-.82-.225-1.622-.871-2.24-.982-.941-2.252.436-1.453 1.45.197.25.345.56.459.894-.579-.305-1.27-.388-1.923-.285-.592.094-1.005.763-1.005 1.32 0 .709.624 1.416 1.37 1.368.225-.015.45-.045.672-.089-.213.042.236.008.228.008.229-.002.446.014.666.005.052.01.107.014.16.024-.202.243-.524.469-.72.634-.483.407-.722 1.278-.776 1.864-.114 1.25 1.854 1.467 2.155.292.254-.993.57-1.96.384-2.987l.02-.038c.042.063.088.125.144.186.204.219.455.384.64.624.404.528.167 1.284.535 1.83.309.46 1.123.592 1.4 0 .457-.976-.183-1.797-.79-2.522a3.635 3.635 0 0 0-.363-.366c.142.002.285-.002.421.018.463.07.785.158 1.265.09.882-.122.94-1.268.478-1.809M39.537 162.193c-.373-.436-1.483-.69-1.987-.31l-.172.122c.013-.573-.157-1.132-.608-1.564-.684-.656-1.57.305-1.013 1.012.139.175.241.392.32.624-.403-.213-.886-.27-1.34-.199-.413.066-.701.532-.701.92 0 .495.435.988.955.955.157-.01.314-.032.468-.061-.148.03.165.005.16.005.16-.001.31.01.465.002.036.008.073.011.11.018-.14.169-.365.326-.502.441-.336.285-.502.892-.54 1.3-.08.873 1.292 1.024 1.502.203.177-.691.398-1.367.267-2.082.007-.01.01-.019.014-.026.03.043.062.087.101.13.144.151.318.266.446.434.283.369.117.896.374 1.277.215.32.784.412.976 0 .318-.681-.128-1.253-.551-1.759a2.49 2.49 0 0 0-.253-.256c.1.002.199 0 .294.014.323.049.547.109.883.064.615-.086.654-.887.332-1.264M102.21 170.123c.535-.626 2.125-.99 2.85-.445.077.058.16.116.246.174-.02-.82.225-1.622.871-2.24.982-.941 2.251.436 1.453 1.45-.199.25-.346.56-.459.894.578-.305 1.269-.388 1.923-.285.592.094 1.004.763 1.004 1.32 0 .709-.624 1.416-1.37 1.368a5.162 5.162 0 0 1-.671-.089c.213.042-.237.008-.228.008-.23-.002-.446.014-.667.005-.052.01-.106.014-.158.024.201.243.523.469.719.634.481.407.72 1.278.775 1.864.115 1.25-1.853 1.467-2.154.292-.254-.993-.57-1.96-.385-2.987l-.019-.038a1.657 1.657 0 0 1-.144.186c-.205.219-.456.384-.64.624-.405.528-.167 1.284-.535 1.83-.309.46-1.125.592-1.401 0-.456-.976.184-1.797.79-2.522.112-.133.237-.25.364-.366-.142.002-.286-.002-.423.018-.461.07-.783.158-1.263.09-.883-.122-.94-1.268-.478-1.809M106.24 162.193c.372-.436 1.482-.69 1.986-.31.054.04.113.08.172.122-.013-.573.158-1.132.608-1.564.685-.656 1.57.305 1.013 1.012a2.1 2.1 0 0 0-.32.624c.403-.213.885-.27 1.341-.199.413.066.7.532.7.92 0 .495-.434.988-.954.955a3.667 3.667 0 0 1-.469-.061c.148.03-.165.005-.159.005-.16-.001-.31.01-.465.002-.036.008-.074.011-.11.018.14.169.364.326.501.441.336.285.503.892.54 1.3.08.873-1.292 1.024-1.501.203-.178-.691-.398-1.367-.269-2.082-.005-.01-.009-.019-.014-.026a.973.973 0 0 1-.1.13c-.143.151-.318.266-.446.434-.282.369-.117.896-.374 1.277-.215.32-.783.412-.977 0-.318-.681.13-1.253.551-1.759.08-.093.165-.176.254-.256-.1.002-.199 0-.294.014-.323.049-.547.109-.882.064-.615-.086-.656-.887-.333-1.264" fill="#E78B2D"/><path d="M93.813 190.987c-11.09 4.666-20.792 3.5-20.795 3.5-.004 0-9.705 1.166-20.795-3.5a79.119 79.119 0 0 1-4.542-2.062c.443.793 23.443 41.58 53.239-.014h-2.54a78.884 78.884 0 0 1-4.567 2.076M71.446 69.37c-.22 1.516-.056 2.689.257 4.169.31 1.461.563 3.03 1.011 4.453.056.173.303.176.357 0 .382-1.267.425-2.613.746-3.9.32-1.286.67-2.516.854-3.832.294-2.104-2.916-3.022-3.225-.89" fill="#000"/><path d="M49.666 60.23c-.468.206-1.076.157-1.57.23-.752.114-1.51.247-2.235.482-.732.237-1.594.536-2.134 1.116-.559.602-.546 1.185-.58 1.951a.289.289 0 0 1-.079.183c.367.199.732.397 1.102.591l.303.157c1.209-.292 2.246-.719 3.202-1.649.961-.936 1.524-1.895 1.991-3.061M43.03 66.203c-.174-.085-.35-.162-.523-.249-.156 3.373.748 7.43 4.137 8.572 1.174-3.09-1.028-6.423-3.615-8.323M43.6 56.64c-1.253.132-2.614-.071-3.838.01-1.83.122-3.695.651-5.037 1.915.523.467 1.065.909 1.615 1.338 1.631.186 3.242.059 4.72-.82 1.104-.656 1.768-1.57 2.54-2.442M24.352 59.777c-.091 2.215.888 3.952 1.202 5.988 3.393-2.395 3.604-8.289 2.373-12.01-2.083 1.39-3.464 3.322-3.575 6.022M55.907 67.146c.815-.814 1.187-1.73 1.599-2.715-.692.572-2.208.867-2.766 1.093-1.517.62-2.886 1.416-2.945 3.064 1.536.129 2.98-.31 4.112-1.442M40.47 51.577c-3.83-2.389-7.65-3.611-11.222-.141.24.482.496.952.766 1.417 3.514 1.74 6.977.022 10.457-1.276M32.968 63.36c-.224 1.156-.293 2.383-.01 3.539.31 1.27.78 2.684 1.738 3.627.404.396.87.717 1.31 1.066 2.119-3.166.014-7.152-2.112-10.044-.397.534-.781 1.066-.926 1.812M65.037 79.639c.184 1.09.179 2.201.4 3.28.239 1.179.815 2.056 1.664 2.802.085-.398.24-.765.23-1.203-.017-.764-.158-1.52-.512-2.207-.487-.947-1.12-1.836-1.782-2.672M52.31 70.283c-.346-.15-.695-.295-1.041-.443.526 1.383.261 3.004.952 4.41.67 1.367 1.71 2.467 3.1 3.063.95-1.767-.624-5.087-2.12-6.63-.296-.133-.591-.271-.892-.4M60.466 74.14c1.92.018 3.266-1.036 4.349-2.543-1.562.145-4.72.409-4.484 2.434.046.036.09.074.135.11M60.46 75.284c-.322.816-.65 1.672-.583 2.555.076.996.436 1.948.928 2.81a.23.23 0 0 1 .031.096c.806-.756 1.224-1.718.995-2.88-.216-1.095-.757-1.757-1.371-2.581" fill="#38A25C"/><path d="M67.1 85.72c-.848-.745-1.424-1.622-1.664-2.8-.22-1.08-.215-2.19-.4-3.282.663.836 1.296 1.726 1.783 2.674.354.687.495 1.442.511 2.205.01.439-.144.806-.23 1.204m-6.264-4.976a.25.25 0 0 0-.031-.095c-.492-.863-.852-1.815-.928-2.811-.067-.884.26-1.739.583-2.555.614.824 1.155 1.486 1.37 2.58.23 1.163-.188 2.126-.994 2.881m3.979-9.148c-1.083 1.508-2.428 2.561-4.349 2.544l-.134-.11c-.238-2.024 2.92-2.29 4.483-2.434m-9.494 5.717c-1.39-.597-2.43-1.697-3.1-3.063-.69-1.407-.426-3.028-.952-4.41.346.147.696.293 1.04.442.3.129.596.267.893.4 1.495 1.543 3.069 4.864 2.119 6.63m-.581-11.789c.558-.226 2.074-.52 2.766-1.093-.412.985-.784 1.901-1.599 2.716-1.132 1.131-2.576 1.57-4.112 1.441.059-1.647 1.428-2.444 2.945-3.064m-10.267-.584c-.1-.052-.202-.103-.303-.157-.37-.194-.735-.392-1.102-.59a.29.29 0 0 0 .079-.184c.034-.766.021-1.35.58-1.951.54-.58 1.402-.879 2.134-1.116.725-.235 1.484-.368 2.235-.481.494-.074 1.102-.025 1.57-.231-.467 1.166-1.03 2.125-1.99 3.061-.957.93-1.994 1.356-3.203 1.65m2.171 9.585c-3.39-1.141-4.293-5.199-4.137-8.572.172.087.349.164.522.249 2.587 1.9 4.789 5.232 3.615 8.323M36.34 59.903a31.16 31.16 0 0 1-1.615-1.338c1.342-1.264 3.207-1.792 5.037-1.915 1.224-.082 2.584.123 3.84-.01-.774.873-1.437 1.787-2.54 2.443-1.48.878-3.09 1.006-4.722.82m-.335 11.688c-.439-.348-.905-.669-1.309-1.065-.959-.943-1.428-2.358-1.739-3.628-.282-1.155-.213-2.381.011-3.538.145-.746.53-1.278.926-1.813 2.126 2.893 4.23 6.88 2.111 10.044m-6.757-20.155c3.572-3.47 7.392-2.248 11.223.141-3.48 1.298-6.943 3.016-10.457 1.275-.27-.464-.527-.934-.766-1.416m-3.694 14.329c-.314-2.036-1.293-3.773-1.202-5.988.11-2.7 1.492-4.632 3.576-6.021 1.23 3.72 1.02 9.614-2.374 12.009m42.262 17.044c-.57-1.387-1.684-2.419-2.808-3.356-.005-.028-.007-.055-.014-.082-.025-.126-.142-.181-.255-.172-.667-1.525-1.804-2.88-3.122-4.08 1.828-.123 3.308-1.982 4.101-3.64a.343.343 0 0 0-.225-.494.37.37 0 0 0-.286-.255c-1.23-.3-2.788.353-3.867.893-.83.415-1.475 1.111-1.594 1.958-1.073-.802-2.176-1.521-3.187-2.158a63.665 63.665 0 0 0-2.952-1.74c.857-.107 1.705-.488 2.38-1.035 1.303-1.054 2.971-3.132 2.13-4.897-.051-.107-.219-.116-.293-.028a.194.194 0 0 0-.081-.081c-.59-.27-1.344.308-1.884.522-.936.373-1.876.73-2.756 1.223-1.209.679-2.028 1.756-1.847 3.022-1.835-.962-3.692-1.882-5.533-2.823 2.121-.513 3.567-2.729 4.308-4.865.028-.385.003-.765-.128-1.114a.556.556 0 0 1-.01.03c-.023-.02-.036-.046-.067-.06-.663-.285-1.54-.023-2.236.082-.972.146-1.963.371-2.865.77-1.342.594-2.75 1.897-2.23 3.453-1.602-.885-3.168-1.826-4.658-2.87a5.617 5.617 0 0 0 2.995-.47c1.592-.728 3.473-2.468 3.989-4.242.078-.1.106-.23.084-.35v-.005c.035-.184-.115-.316-.27-.285l-.012-.006c-1.849-.451-4.178-.145-6.035.213-1.863.358-3.033 1.234-4.003 2.575a27.361 27.361 0 0 1-1.428-1.38 22.064 22.064 0 0 1-2.477-3.152c3.583 1.704 7.679-.438 11.3-1.9.037-.015.062-.038.091-.059a1.884 1.884 0 0 0-.102-.2c-.108-.18-.215-.355-.316-.536-.007-.01-.016-.018-.023-.027-.032-.037-.064-.073-.094-.11-.004-.005-.006-.012-.01-.018-2.952-2.739-10.731-4.882-12.45.031-1.366-2.86-2.183-5.984-2.477-9.141-.08-.867-1.496-1.221-1.642-.222-.538 3.66.731 7.461 2.559 10.79a.478.478 0 0 0 .034.263c.006.01.01.023.016.035-2.322.938-3.855 3.246-4.331 5.674-.423 2.153-.089 6.108 2.007 7.481l-.017.01c.252.09.5.188.765.208 2.016-.978 2.881-3.955 3.326-5.93.235-1.048.499-2.675.438-4.225.972 1.33 2.09 2.527 3.292 3.63-.006.004-.01.012-.017.016.159.136.202.399-.038.51a.37.37 0 0 0-.11.063c-.011.008-.022.008-.034.014-1.758 1.319-1.904 4.74-1.623 6.576.287 1.883 2.124 5.775 4.538 5.773.076.04.168.043.264-.016.187-.022.376-.066.567-.137.118-.045.162-.18.073-.277-.023-.025-.05-.046-.074-.07 2.409-2.46 1.151-7.364-1.051-10.384a40.905 40.905 0 0 0 3.486 2.33c.773.463 1.563.896 2.362 1.315-1.312 3.269 1.902 10.498 4.914 9.94.33-.156.627-.37.882-.633l-.037-.01c1.455-2.078.203-5.026-1.583-7.286 1.734.775 3.484 1.512 5.228 2.25-1.314 1.33-.203 4.21.501 5.574.769 1.49 2.12 2.756 3.766 2.647.025.03.06.05.107.03.031-.013.06-.03.087-.044.191-.105.36-.23.527-.381 1.228-1.3-.02-4.283-1.4-6.238 1.647.79 3.25 1.662 4.782 2.673.222.147.427.305.633.46.002.006.002.014.005.022-.002.004 0 .01 0 .014a.338.338 0 0 1 .09.293c.009.008.01.02.02.026-.017.023-.03.046-.046.068a.295.295 0 0 1-.057.087c-1.3 1.954-1.243 4.504.646 6.05a.24.24 0 0 0 .122.052l-.046.04-.004.007c.005.003.012.003.017.007.154.099.34.126.531.115 1.655-.423 1.844-2.761 1.147-4.499.78.875 1.513 1.798 2.308 2.724l-.003.006c-.561 2.642-.51 6.941 2.979 7.252.045-.024.087-.052.13-.08.027-.016.053-.033.078-.052.034-.025.057-.059.085-.09 0-.014.002-.03-.002-.048.754-.973.463-2.465.02-3.544" fill="#000"/><path d="M95.854 60.23c.468.206 1.076.157 1.569.23.753.114 1.51.247 2.236.482.73.237 1.594.536 2.134 1.116.559.602.546 1.185.58 1.951a.286.286 0 0 0 .079.183c-.366.199-.732.397-1.102.591-.1.053-.203.105-.304.157-1.208-.292-2.245-.719-3.2-1.649-.964-.936-1.525-1.895-1.992-3.061M102.491 66.203c.173-.085.35-.162.522-.249.155 3.373-.749 7.43-4.137 8.572-1.174-3.09 1.029-6.423 3.615-8.323M101.92 56.64c1.253.132 2.613-.071 3.838.01 1.83.122 3.694.651 5.037 1.915-.523.467-1.065.909-1.615 1.338-1.631.186-3.242.059-4.72-.82-1.106-.656-1.768-1.57-2.54-2.442M121.168 59.777c.092 2.215-.887 3.952-1.202 5.988-3.394-2.395-3.605-8.289-2.373-12.01 2.084 1.39 3.463 3.322 3.575 6.022M89.613 67.146c-.814-.814-1.187-1.73-1.599-2.715.69.572 2.208.867 2.767 1.093 1.516.62 2.885 1.416 2.944 3.064-1.537.129-2.98-.31-4.112-1.442M105.05 51.577c3.83-2.389 7.649-3.611 11.22-.141-.237.482-.495.952-.764 1.417-3.514 1.74-6.977.022-10.457-1.276M112.552 63.36c.223 1.156.293 2.383.011 3.539-.312 1.27-.781 2.684-1.739 3.627-.404.396-.87.717-1.309 1.066-2.12-3.166-.016-7.152 2.111-10.044.397.534.781 1.066.926 1.812M80.483 79.639c-.184 1.09-.18 2.201-.4 3.28-.24 1.179-.815 2.056-1.665 2.802-.084-.398-.238-.765-.229-1.203.016-.764.158-1.52.512-2.207.487-.947 1.12-1.836 1.782-2.672M93.21 70.283c.346-.15.694-.295 1.041-.443-.527 1.383-.262 3.004-.951 4.41-.67 1.367-1.71 2.467-3.1 3.063-.95-1.767.622-5.087 2.117-6.63.298-.133.592-.271.893-.4M85.053 74.14c-1.92.018-3.265-1.036-4.347-2.543 1.56.145 4.72.409 4.482 2.434-.046.036-.09.074-.135.11M85.06 75.284c.323.816.65 1.672.583 2.555-.077.996-.436 1.948-.928 2.81a.228.228 0 0 0-.03.096c-.807-.756-1.225-1.718-.995-2.88.215-1.095.756-1.757 1.37-2.581" fill="#38A25C"/><path d="M78.189 84.518c.016-.764.158-1.519.511-2.207.488-.947 1.121-1.836 1.783-2.672-.185 1.09-.18 2.201-.399 3.28-.24 1.18-.816 2.057-1.666 2.802-.085-.398-.238-.765-.23-1.203m5.501-6.654c.216-1.094.757-1.756 1.37-2.58.323.816.651 1.672.584 2.555-.077.996-.436 1.947-.929 2.81a.25.25 0 0 0-.03.096c-.806-.755-1.224-1.717-.995-2.88m1.499-3.834c-.046.036-.09.074-.135.11-1.92.017-3.265-1.036-4.348-2.544 1.562.144 4.721.409 4.483 2.434m7.13-3.347c.297-.134.591-.272.891-.402l1.042-.442c-.527 1.382-.262 3.004-.952 4.41-.67 1.367-1.709 2.466-3.1 3.063-.95-1.767.623-5.087 2.118-6.629m1.408-2.096c-1.537.13-2.98-.31-4.112-1.442-.815-.814-1.188-1.73-1.599-2.715.69.572 2.209.867 2.767 1.094 1.516.619 2.885 1.415 2.944 3.063m4.12-5.297c-.963-.936-1.524-1.895-1.991-3.061.468.206 1.076.158 1.569.231.753.112 1.511.246 2.236.481.73.237 1.594.535 2.134 1.116.559.601.546 1.185.58 1.951a.289.289 0 0 0 .079.183c-.366.198-.732.397-1.102.59-.1.054-.203.106-.304.158-1.208-.292-2.245-.719-3.2-1.649m4.645 2.912c.173-.085.35-.162.522-.249.155 3.373-.748 7.431-4.137 8.572-1.174-3.09 1.028-6.423 3.615-8.323m1.968-7.12c-1.105-.656-1.767-1.57-2.54-2.443 1.254.133 2.614-.071 3.839.01 1.83.123 3.694.651 5.037 1.915a31.44 31.44 0 0 1-1.615 1.338c-1.631.186-3.242.059-4.72-.82m7.166 2.465c.397.534.781 1.065.926 1.812.224 1.156.293 2.383.01 3.539-.31 1.27-.78 2.684-1.738 3.627-.403.396-.87.717-1.309 1.066-2.12-3.166-.016-7.152 2.11-10.044m3.881-8.696c-3.514 1.74-6.977.024-10.457-1.275 3.83-2.389 7.65-3.611 11.222-.14-.238.48-.496.95-.765 1.415m2.087.904c2.083 1.389 3.463 3.32 3.575 6.02.092 2.216-.888 3.954-1.202 5.988-3.393-2.394-3.606-8.288-2.373-12.008m-39.87 32.598c-.003.016-.001.033-.001.048.027.03.05.065.084.09.025.018.052.034.08.051.04.028.083.056.13.08 3.488-.31 3.538-4.61 2.977-7.252 0-.004-.002-.004-.002-.006.795-.927 1.528-1.85 2.307-2.723-.696 1.736-.507 4.075 1.148 4.498.19.011.377-.016.53-.116l.018-.006c-.001-.002-.001-.005-.003-.007-.017-.012-.032-.027-.047-.04a.23.23 0 0 0 .121-.052c1.89-1.545 1.947-4.097.646-6.05a.333.333 0 0 1-.057-.087l-.044-.067c.008-.007.01-.02.017-.027a.343.343 0 0 1 .091-.294c0-.004.003-.01.002-.013l.005-.023c.206-.155.41-.312.632-.46 1.533-1.01 3.134-1.882 4.783-2.672-1.381 1.955-2.63 4.938-1.402 6.238.168.15.337.277.526.38.03.015.057.032.089.044.047.02.08.002.106-.029 1.646.11 2.997-1.156 3.767-2.647.704-1.365 1.814-4.244.5-5.574 1.745-.738 3.495-1.475 5.228-2.25-1.786 2.26-3.036 5.209-1.582 7.286a.266.266 0 0 0-.038.01c.255.262.553.478.883.633 3.011.558 6.226-6.67 4.915-9.94a48.152 48.152 0 0 0 2.361-1.315 40.988 40.988 0 0 0 3.486-2.33c-2.203 3.02-3.46 7.925-1.052 10.384-.023.025-.05.045-.073.07-.09.097-.045.232.073.276.192.073.38.117.566.138.097.059.189.057.265.016 2.413.002 4.252-3.89 4.538-5.773.28-1.835.135-5.258-1.624-6.576-.011-.006-.023-.006-.034-.014a.355.355 0 0 0-.11-.062c-.238-.112-.196-.374-.037-.511-.007-.004-.011-.012-.018-.016 1.205-1.103 2.32-2.3 3.292-3.63-.06 1.55.204 3.177.44 4.225.442 1.976 1.309 4.953 3.324 5.93.264-.02.514-.117.765-.21a.433.433 0 0 0-.017-.007c2.097-1.374 2.43-5.33 2.008-7.482-.476-2.427-2.01-4.736-4.332-5.674.007-.011.012-.024.017-.036a.476.476 0 0 0 .034-.262c1.829-3.33 3.098-7.13 2.559-10.79-.146-.999-1.562-.645-1.643.222-.292 3.158-1.111 6.281-2.476 9.141-1.718-4.913-9.498-2.77-12.45-.031l-.01.019c-.03.036-.063.073-.094.108a.904.904 0 0 0-.023.028c-.1.18-.21.355-.316.535a2.16 2.16 0 0 0-.102.201c.03.02.053.044.089.059 3.623 1.462 7.72 3.604 11.302 1.9a22.049 22.049 0 0 1-2.477 3.151c-.46.483-.94.938-1.428 1.381-.97-1.34-2.14-2.217-4.003-2.575-1.857-.358-4.186-.664-6.036-.213-.005 0-.008.004-.013.006-.153-.03-.303.101-.27.284.002.002.002.005.002.007a.445.445 0 0 0 .083.348c.516 1.775 2.397 3.514 3.99 4.242a5.6 5.6 0 0 0 2.995.47c-1.49 1.045-3.056 1.987-4.659 2.872.52-1.557-.888-2.86-2.23-3.454-.902-.398-1.893-.624-2.865-.77-.695-.105-1.573-.367-2.236-.081-.03.013-.043.039-.065.059l-.012-.03c-.13.35-.156.73-.127 1.115.74 2.136 2.186 4.35 4.307 4.865-1.84.94-3.698 1.86-5.532 2.822.18-1.266-.638-2.343-1.847-3.021-.88-.495-1.821-.851-2.757-1.223-.539-.215-1.294-.792-1.883-.523a.194.194 0 0 0-.08.08c-.075-.087-.242-.078-.293.029-.842 1.765.825 3.842 2.128 4.897.676.547 1.523.928 2.382 1.034-1 .557-1.987 1.132-2.953 1.74a48.783 48.783 0 0 0-3.188 2.159c-.118-.847-.764-1.543-1.594-1.958-1.078-.54-2.637-1.193-3.866-.894-.163.04-.25.14-.285.257a.342.342 0 0 0-.226.493c.794 1.658 2.273 3.517 4.102 3.64-1.319 1.201-2.456 2.556-3.123 4.08-.112-.01-.231.046-.257.172-.004.027-.006.054-.013.082-1.123.937-2.239 1.969-2.807 3.356-.443 1.079-.736 2.571.02 3.545M72.727 85.059c-1.365 0-2.505 1.138-2.505 2.503 0 1.365 1.14 2.505 2.505 2.505s2.505-1.14 2.505-2.505-1.14-2.503-2.505-2.503M73.963 82.631c.039-.061.07-.124.098-.188v-.001c.337-.801-.185-1.812-1.168-1.812-.983 0-1.505 1.01-1.169 1.812h.001c.028.065.06.128.099.19l.022.038c.039.057.083.114.132.166l.022.025c.237.25.565.369.893.365a1.196 1.196 0 0 0 .914-.39c.05-.052.094-.109.133-.166.01-.012.015-.026.023-.039M72.893 92.127a1 1 0 0 0-.991.99 1 1 0 0 0 .991.992 1 1 0 0 0 .991-.991 1 1 0 0 0-.99-.99" fill="#000"/><path d="M109.755 76.036c-.807.162-1.9 1.374-1.778 2.27.012.097.022.198.033.3-.707-.415-1.527-.594-2.383-.332-1.3.399-.716 2.178.56 1.976.316-.05.658-.028 1.004.035-.548.356-.957.918-1.185 1.538-.207.563.176 1.25.663 1.52.62.347 1.542.147 1.862-.527.097-.204.18-.415.251-.63-.067.206.122-.203.118-.196.11-.2.23-.382.329-.58.035-.04.065-.084.099-.126.114.295.153.686.202.937.12.62.764 1.252 1.251 1.585 1.037.71 2.186-.902 1.306-1.738-.745-.706-1.437-1.453-2.423-1.791-.007-.013-.018-.024-.024-.036.076-.006.153-.016.232-.034.29-.073.557-.211.858-.255.658-.095 1.204.48 1.86.425.55-.046 1.064-.694.682-1.223-.631-.874-1.66-.715-2.588-.539a3.826 3.826 0 0 0-.498.138c.071-.123.138-.25.223-.358.286-.37.519-.607.694-1.06.323-.83-.65-1.438-1.348-1.299M124.285 80.074c-1.008-.255-2.911.529-3.26 1.616-.037.118-.083.238-.126.36-.58-.86-1.414-1.507-2.532-1.675-1.698-.255-2.003 2.089-.44 2.553.387.115.764.327 1.124.587-.818.107-1.59.524-2.188 1.106-.54.529-.48 1.519-.073 2.092.517.731 1.675 1.006 2.408.412.222-.179.43-.374.628-.58-.188.198.25-.164.24-.157.235-.17.47-.311.692-.483.061-.026.119-.06.18-.089-.029.396-.197.864-.28 1.176-.198.772.188 1.841.56 2.486.794 1.372 2.981.162 2.434-1.268-.463-1.208-.843-2.436-1.781-3.358-.002-.018-.007-.036-.008-.053.09.034.181.066.283.087.371.076.749.063 1.116.177.8.25 1.108 1.2 1.885 1.495.653.249 1.59-.209 1.443-1.02-.243-1.337-1.5-1.717-2.653-2.021a4.462 4.462 0 0 0-.642-.114c.148-.102.293-.21.45-.288.526-.265.922-.41 1.367-.827.82-.77.042-1.992-.827-2.214M98.374 77.182c-.564.113-1.325.958-1.24 1.583.009.067.016.138.023.21-.493-.29-1.065-.415-1.662-.232-.906.278-.499 1.52.39 1.378.222-.036.46-.02.7.024-.381.248-.667.64-.826 1.073-.144.392.124.871.463 1.06.432.241 1.075.101 1.3-.368.067-.142.124-.29.173-.439-.046.144.086-.141.083-.136.077-.14.16-.267.228-.405.026-.028.046-.059.07-.088.08.206.108.478.142.653.084.433.532.873.873 1.105.722.495 1.522-.629.909-1.212-.519-.492-1.002-1.014-1.69-1.25l-.016-.023c.052-.005.106-.01.162-.025.203-.051.389-.147.598-.177.459-.067.839.334 1.297.296.385-.032.743-.483.476-.853-.44-.61-1.158-.498-1.806-.375a2.51 2.51 0 0 0-.347.096c.051-.086.098-.174.156-.25.2-.258.362-.425.485-.74.225-.578-.455-1.002-.941-.905M36.072 76.036c.808.162 1.9 1.374 1.779 2.27a5.924 5.924 0 0 0-.034.3c.708-.415 1.527-.594 2.383-.332 1.3.399.715 2.178-.56 1.976a3.034 3.034 0 0 0-1.005.035c.55.356.959.918 1.186 1.538.207.563-.177 1.25-.663 1.52-.62.347-1.542.147-1.863-.527a5.375 5.375 0 0 1-.25-.63c.067.206-.122-.203-.117-.196-.11-.2-.23-.382-.329-.58-.035-.04-.065-.084-.1-.126-.113.295-.153.686-.202.937-.12.62-.764 1.252-1.25 1.585-1.038.71-2.187-.902-1.306-1.738.743-.706 1.435-1.453 2.422-1.791l.025-.036a1.491 1.491 0 0 1-.234-.034c-.29-.073-.557-.211-.856-.255-.66-.095-1.204.48-1.86.425-.552-.046-1.065-.694-.683-1.223.631-.874 1.66-.715 2.588-.539.172.033.336.084.498.138-.07-.123-.138-.25-.223-.358-.286-.37-.519-.607-.695-1.06-.323-.83.652-1.438 1.349-1.299M21.542 80.074c1.007-.255 2.911.529 3.261 1.616.037.118.082.238.126.36.58-.86 1.413-1.507 2.532-1.675 1.696-.255 2.002 2.089.438 2.553-.386.115-.763.327-1.124.587.819.107 1.59.524 2.188 1.106.543.529.48 1.519.074 2.092-.517.731-1.676 1.006-2.409.412a6.93 6.93 0 0 1-.628-.58c.189.198-.248-.164-.24-.157-.234-.17-.47-.311-.69-.483-.061-.026-.121-.06-.182-.089.03.396.2.864.28 1.176.2.772-.187 1.841-.56 2.486-.794 1.372-2.98.162-2.433-1.268.463-1.208.842-2.436 1.781-3.358.002-.018.007-.036.009-.053-.09.034-.183.066-.284.087-.37.076-.749.063-1.115.177-.802.25-1.109 1.2-1.886 1.495-.652.249-1.59-.209-1.444-1.02.243-1.337 1.5-1.717 2.654-2.021.213-.057.428-.089.642-.114-.148-.102-.294-.21-.45-.288-.526-.265-.921-.41-1.368-.827-.82-.77-.042-1.992.828-2.214M47.453 77.182c.564.113 1.326.958 1.24 1.583-.01.067-.017.138-.023.21.494-.29 1.065-.415 1.662-.232.907.278.5 1.52-.39 1.378a2.088 2.088 0 0 0-.701.024c.383.248.668.64.827 1.073.144.392-.124.871-.463 1.06-.433.241-1.075.101-1.299-.368a3.781 3.781 0 0 1-.175-.439c.047.144-.084-.141-.082-.136-.076-.14-.16-.267-.23-.405-.024-.028-.044-.059-.068-.088-.079.206-.107.478-.141.653-.085.433-.533.873-.874 1.105-.722.495-1.523-.629-.908-1.212.518-.492 1-1.014 1.689-1.25l.016-.023a1.036 1.036 0 0 1-.162-.025c-.203-.051-.388-.147-.597-.177-.46-.067-.84.334-1.298.296-.385-.032-.742-.483-.476-.853.44-.61 1.157-.498 1.805-.375.12.022.234.057.347.096-.05-.086-.096-.174-.155-.25-.2-.258-.362-.425-.485-.74-.224-.578.455-1.002.941-.905" fill="#E78B2D"/><path d="M44.488 34.821c-5.852 8.929-1.232 13.547 6.16 18.781 6.162 4.002 13.246 13.547 20.64 13.854 2.463 0 8.932.617 11.089-.307 3.696-1.54 4.62-6.466 8.009-8.93 4.004-2.77 8.625-3.385 12.321-7.696 4.004-4.926 1.54-7.697 0-12.93-1.848-4.927-2.773-6.774-7.393-10.16-4.62-2.771-7.085-4.003-12.322-3.387-8.932.616-32.343 2.463-39.12 10.468" fill="#FFF"/><path d="M79.929 140.879c-3.63 0-6.572 1.779-6.572 3.974 0 2.195 2.943 3.974 6.572 3.974.254 0 .504-.01.75-.027 2.66-.069 11.698-.032 15.61 3.41 4.615 4.06 3.357-11.331-16.36-11.331M65.175 148.8c.247.016.497.027.751.027 3.63 0 6.572-1.78 6.572-3.974 0-2.195-2.942-3.975-6.572-3.975-19.716 0-20.974 15.391-16.36 11.332 3.913-3.442 12.95-3.479 15.609-3.41zM68.914 12.122c-22.809 5.147-47.64 20.916-57.558 41.23-6.403 13.114-2.981 33.85-.834 50.678.325 2.546-.763 8.671 3.337 9.447 5.092-3.465 4.543-13.22 4.17-20.614-.322-6.397-2.614-12.505-1.668-18.038C28.31 68.408 37.573 61.46 46.39 51.634c4.705-5.242 7.14-11.884 12.513-15.461 14.258-9.494 50.127-3.292 57.557 6.872 2.293 3.136 2.303 8.878 4.172 14.601 1.65 5.054 5.05 9.896 5.838 13.743 2.578 12.589-.16 26.593 6.673 36.936 5.46-26.66 6.56-65.172-17.518-71.293-3.722-18.5-25.11-18.81-40.873-24.91h-5.84z" fill="#000"/><path d="M19.85 89.63h6.438s23.04-6.434 38.964 4.065h13.554s23.378-12.191 41.676 0h7.453v5.418l-4.403 3.387s.338 17.948-13.215 18.964c0 0-19.314 4.403-27.445-3.724 0 0-6.099-7.95-6.438-15.4l-9.148-.18s-1.695 18.299-13.893 20.495c0 0-18.634 1.856-24.395-4.578 0 0-4.067-3.386-6.437-14.9l-2.71-2.032V89.63z" fill="#000"/><path fill="#1A1918" d="M19.85 89.63l-3.848-1.95-2.776 6.43 6.624 7.035M127.935 93.695l2.337-1.375 2.402 7.08-4.739-.287"/><path d="M63.405 102.68s-1.414 15.26-11.587 17.092c0 0-15.54 1.548-20.344-3.818 0 0-3.392-2.823-5.37-12.426v-9.602l3.11-1.695s19.213-5.366 32.495 3.39M82.969 95.62s19.496-10.167 34.757 0l2.156.786.389 4.413-.003 2.144s.283 14.969-11.02 15.816c0 0-16.107 3.672-22.888-3.106 0 0-5.087-6.215-5.37-12.427" fill="#FFF"/><path d="M50.131 98.586c0 3.808-2.3 6.895-5.138 6.895-2.836 0-5.137-3.087-5.137-6.895 0-2.1.7-3.98 1.803-5.245.898-1.03 2.063 1.094 3.334 1.094 1.301 0 2.49-2.094 3.395-1.024 1.068 1.264 1.743 3.114 1.743 5.175" fill="#E78B2D"/><path d="M41.589 97.587c3.299 1.904 4.824 5.438 3.404 7.894-1.418 2.456-5.243 2.903-8.542 1-1.819-1.051-3.098-2.597-3.643-4.184-.444-1.29 1.979-1.237 2.615-2.338.651-1.127-.57-3.203.81-3.452 1.629-.292 3.569.049 5.356 1.08" fill="#E78B2D"/><path d="M36.451 104.48c3.3-1.903 7.124-1.455 8.542 1 1.42 2.456-.106 5.99-3.405 7.894-1.82 1.05-3.799 1.384-5.446 1.064-1.34-.263-.082-2.333-.718-3.435-.65-1.127-3.06-1.107-2.585-2.425.56-1.558 1.826-3.066 3.612-4.097" fill="#E78B2D"/><path d="M39.856 112.375c0-3.808 2.3-6.894 5.137-6.894 2.836 0 5.138 3.086 5.138 6.894 0 2.1-.7 3.98-1.803 5.245-.897 1.03-2.06-1.094-3.335-1.094-1.301-.001-2.49 2.094-3.394 1.025-1.07-1.264-1.743-3.114-1.743-5.176" fill="#E78B2D"/><path d="M48.399 113.374c-3.3-1.903-4.825-5.438-3.406-7.893 1.42-2.456 5.243-2.903 8.543-1 1.819 1.05 3.098 2.596 3.644 4.183.443 1.292-1.98 1.237-2.617 2.339-.65 1.126.571 3.202-.809 3.451-1.628.293-3.57-.05-5.355-1.08" fill="#E78B2D"/><path d="M53.536 106.48c-3.3 1.904-7.123 1.457-8.543-1-1.419-2.454.108-5.99 3.407-7.893 1.819-1.05 3.798-1.385 5.445-1.063 1.34.262.083 2.331.718 3.435.65 1.125 3.06 1.106 2.586 2.424-.56 1.558-1.828 3.066-3.613 4.098" fill="#E78B2D"/><path d="M49.232 105.482a4.237 4.237 0 0 1-8.473 0 4.236 4.236 0 0 1 4.236-4.236 4.236 4.236 0 0 1 4.237 4.236" fill="#FFF"/><path d="M46.973 105.482a1.977 1.977 0 1 1-3.954-.002 1.977 1.977 0 0 1 3.954.002" fill="#000"/><path d="M43.53 98.477c-.16-.758-.227-1.533-.358-2.297-.006-.032-.06-.032-.067 0-.219 1.32-.39 3.66.773 4.622.17.141.403.009.362-.21-.137-.726-.553-1.375-.71-2.115M46.406 95.767c-.01-.04-.073-.042-.083 0-.156.683-.133 1.396-.174 2.093-.057.944-.3 1.767-.693 2.62-.179.388.357.719.582.339.794-1.343.716-3.586.368-5.052M38.194 103.245c-.737-.24-1.442-.57-2.17-.837-.03-.012-.058.036-.033.057 1.034.85 2.976 2.168 4.391 1.643.207-.078.21-.346-.001-.42-.698-.244-1.468-.207-2.187-.443M37.282 99.402c-.04-.014-.072.041-.04.07.514.477 1.142.814 1.726 1.198.79.522 1.381 1.144 1.924 1.909.246.35.801.051.584-.333-.766-1.36-2.748-2.413-4.194-2.844M39.657 110.249c-.577.518-1.215.963-1.812 1.459-.025.021.004.069.034.058 1.253-.472 3.367-1.493 3.619-2.98.037-.218-.194-.354-.364-.208-.56.48-.914 1.166-1.477 1.67M35.87 109.115c-.03.027.002.084.041.071.671-.207 1.276-.582 1.901-.895.847-.422 1.682-.625 2.616-.71.426-.039.445-.669.005-.673-1.562-.017-3.465 1.172-4.563 2.207M46.457 112.484c.16.759.227 1.534.358 2.298.005.032.06.032.066 0 .22-1.321.39-3.662-.771-4.623-.17-.14-.404-.01-.362.21.136.726.552 1.375.709 2.115M43.582 115.194c.007.041.072.042.08 0 .158-.683.134-1.394.176-2.092.058-.944.3-1.768.692-2.62.18-.387-.355-.72-.58-.34-.795 1.344-.718 3.586-.368 5.052M51.793 107.716c.738.241 1.443.57 2.17.839.03.01.058-.038.033-.059-1.034-.848-2.977-2.168-4.39-1.643-.207.078-.21.346 0 .42.697.244 1.468.208 2.187.443M52.704 111.56c.04.014.072-.042.04-.07-.513-.479-1.14-.814-1.725-1.199-.79-.522-1.382-1.142-1.923-1.908-.247-.35-.803-.053-.586.331.767 1.36 2.75 2.415 4.194 2.847M50.33 100.713c.578-.518 1.215-.964 1.81-1.46.027-.02-.001-.068-.033-.056-1.253.47-3.366 1.491-3.62 2.979-.034.216.196.353.365.207.56-.48.915-1.166 1.478-1.67M54.117 101.846c.03-.027 0-.084-.04-.071-.672.207-1.276.582-1.902.895-.847.424-1.682.625-2.616.71-.425.04-.447.67-.005.673 1.561.016 3.466-1.172 4.563-2.207" fill="#1A1918"/><path d="M105.574 98.586c0 3.808-2.3 6.895-5.138 6.895-2.836 0-5.137-3.087-5.137-6.895 0-2.1.7-3.98 1.803-5.245.897-1.03 2.063 1.094 3.334 1.094 1.302 0 2.49-2.094 3.395-1.024 1.068 1.264 1.743 3.114 1.743 5.175" fill="#E78B2D"/><path d="M97.032 97.587c3.3 1.904 4.823 5.438 3.404 7.894-1.418 2.456-5.242 2.903-8.542 1-1.82-1.051-3.099-2.597-3.644-4.184-.443-1.29 1.98-1.237 2.616-2.338.65-1.127-.57-3.203.81-3.452 1.63-.292 3.57.049 5.356 1.08" fill="#E78B2D"/><path d="M91.894 104.48c3.3-1.903 7.124-1.455 8.542 1 1.419 2.456-.105 5.99-3.405 7.894-1.82 1.05-3.799 1.384-5.446 1.064-1.34-.263-.082-2.333-.719-3.435-.65-1.127-3.06-1.107-2.584-2.425.56-1.558 1.826-3.066 3.612-4.097" fill="#E78B2D"/><path d="M95.3 112.375c0-3.808 2.299-6.894 5.136-6.894s5.137 3.086 5.137 6.894c0 2.1-.699 3.98-1.801 5.245-.898 1.03-2.062-1.094-3.336-1.094-1.3-.001-2.489 2.094-3.393 1.025-1.07-1.264-1.743-3.114-1.743-5.176" fill="#E78B2D"/><path d="M103.842 113.374c-3.3-1.903-4.824-5.438-3.406-7.893 1.42-2.456 5.243-2.903 8.543-1 1.819 1.05 3.098 2.596 3.644 4.183.443 1.292-1.98 1.237-2.617 2.339-.65 1.126.57 3.202-.809 3.451-1.628.293-3.569-.05-5.355-1.08" fill="#E78B2D"/><path d="M108.979 106.48c-3.3 1.904-7.123 1.457-8.543-1-1.418-2.454.108-5.99 3.407-7.893 1.819-1.05 3.798-1.385 5.445-1.063 1.34.262.083 2.331.718 3.435.65 1.125 3.06 1.106 2.586 2.424-.56 1.558-1.828 3.066-3.613 4.098" fill="#E78B2D"/><path d="M104.675 105.482a4.237 4.237 0 0 1-8.474 0 4.236 4.236 0 0 1 4.237-4.236 4.236 4.236 0 0 1 4.237 4.236" fill="#FFF"/><path d="M102.416 105.482a1.977 1.977 0 1 1-3.954-.002 1.977 1.977 0 0 1 3.954.002" fill="#000"/><path d="M98.974 98.477c-.16-.758-.228-1.533-.359-2.297-.006-.032-.06-.032-.067 0-.219 1.32-.39 3.66.773 4.622.17.141.404.009.362-.21-.137-.726-.553-1.375-.71-2.115M101.85 95.767c-.011-.04-.074-.042-.084 0-.156.683-.133 1.396-.174 2.093-.057.944-.3 1.767-.693 2.62-.178.388.357.719.582.339.793-1.343.716-3.586.368-5.052M93.638 103.245c-.739-.24-1.443-.57-2.17-.837-.032-.012-.06.036-.033.057 1.033.85 2.976 2.168 4.39 1.643.207-.078.21-.346-.001-.42-.698-.244-1.467-.207-2.186-.443M92.725 99.402c-.04-.014-.071.041-.04.07.514.477 1.142.814 1.726 1.198.79.522 1.381 1.144 1.924 1.909.246.35.801.051.584-.333-.766-1.36-2.748-2.413-4.194-2.844M95.1 110.249c-.577.518-1.215.963-1.812 1.459-.025.021.004.069.034.058 1.253-.472 3.367-1.493 3.619-2.98.037-.218-.194-.354-.364-.208-.56.48-.914 1.166-1.477 1.67M91.314 109.115c-.032.027 0 .084.04.071.672-.207 1.276-.582 1.902-.895.847-.422 1.681-.625 2.615-.71.426-.039.445-.669.005-.673-1.562-.017-3.466 1.172-4.562 2.207M101.9 112.484c.159.759.227 1.534.357 2.298.007.032.062.032.068 0 .218-1.321.39-3.662-.773-4.623-.17-.14-.403-.01-.36.21.135.726.55 1.375.708 2.115M99.025 115.194c.007.041.071.042.08 0 .158-.683.134-1.394.176-2.092.058-.944.3-1.768.692-2.62.18-.387-.355-.72-.58-.34-.795 1.344-.718 3.586-.368 5.052M107.236 107.716c.738.241 1.443.57 2.17.839.03.01.059-.038.033-.059-1.034-.848-2.976-2.168-4.39-1.643-.207.078-.21.346 0 .42.697.244 1.468.208 2.187.443M108.147 111.56c.04.014.072-.042.04-.07-.513-.479-1.14-.814-1.725-1.199-.79-.522-1.382-1.142-1.924-1.908-.245-.35-.801-.053-.585.331.768 1.36 2.749 2.415 4.194 2.847M105.773 100.713c.578-.518 1.215-.964 1.811-1.46.026-.02-.002-.068-.034-.056-1.253.47-3.366 1.491-3.62 2.979-.034.216.196.353.365.207.56-.48.915-1.166 1.478-1.67M109.56 101.846c.03-.027 0-.084-.04-.071-.672.207-1.276.582-1.902.895-.847.424-1.682.625-2.616.71-.425.04-.447.67-.005.673 1.561.016 3.466-1.172 4.563-2.207" fill="#1A1918"/></g></svg>